<?xml version="1.0" encoding="utf-8"?>
<!-- Generator: Adobe Illustrator 22.0.1, SVG Export Plug-In . SVG Version: 6.00 Build 0)  -->
<svg version="1.1" id="Слой_1" xmlns="http://www.w3.org/2000/svg" xmlns:xlink="http://www.w3.org/1999/xlink" x="0px" y="0px"
	 viewBox="0 0 2061 372" style="enable-background:new 0 0 2061 372;" xml:space="preserve">
<style type="text/css">
	.st0{fill:#ED1B28;}
</style>
<g>
	<g>
		<path d="M1934.1,234.2v0.2c-2.7,0-4-1.5-4-4.6l5.3-17.3c0.6-2,0.9-3.8,0.9-5.5c-0.1-2.9-1.1-5.3-3-7.3c-1.9-1.9-4.6-2.9-8.3-2.9
			h-3.6l26.9-25.5H1923l-26.4,25.9h-0.1l23.6-78.9h-20.2l-34.6,116h-107.4c-1.5,0-2.6-0.2-3.2-0.5c-0.7-0.3-1-1-1-1.9
			c0-0.1,0.1-0.8,0.4-2l17.6-58.6H1753c-1.8,3.1-15.7,49.6-15.7,49.6s-0.6,2.2-1.4,4.5c-0.7,2.3-1.3,4.1-1.6,5.6
			c-0.2,1-0.3,2.1-0.4,3.3h-35.7c-1.5,0-2.6-0.2-3.2-0.5c-0.7-0.3-1-1-1-1.9c0-0.1,0.1-0.8,0.4-2l17.6-58.6h-18.7
			c-1.9,3.1-15.7,49.6-15.7,49.6s-0.6,2.2-1.4,4.5c-0.7,2.3-1.3,4.1-1.6,5.6c-0.2,1-0.3,2.1-0.4,3.3h-86.9h-12.9
			c-4.4,0-7.7-0.8-9.8-2.4c-2.2-1.6-3.3-4.1-3.3-7.5c0-2.2,0.4-4.8,1.3-7.9l4.9-17.2c1.2-3.8,3.3-6.3,6.2-7.3c3-1,6.3-1.5,10.1-1.5
			l6.1-19.1h-78l-5.8,19.1h44l-7.2,24.9c-1.2,3.9-1.9,7.9-1.9,11.7c0,2.6,0.3,5,0.9,7.2h-148.1c-8.8,0-13.3-3.3-13.3-9.8
			c0-2.2,0.5-4.8,1.5-8.1l7.5-24.7c1.1-3.7,1.6-6.8,1.6-9.4c0-7.3-4.3-11-12.8-11h-106.2l-5.9,19.1h15.4l-13.1,43.8h-79
			c-9.3,0-20.3,1.6-33,4.7l15.8-52.8l4.5-14.9h-18.9c-1.9,3.2-5.3,8.3-10.3,15.1c-5,6.8-10.6,14-16.9,21.4
			c-6.2,7.5-12.1,13.8-17.6,18.8c-5.5,5.1-9.6,7.6-12.3,7.6c-1,0-1.5-0.4-1.5-1.1c0-1.1,0.2-2.1,0.5-3l17.5-58.9h-20l-16.4,56
			c-0.7,2.5-1.2,4.8-1.5,7h-87.9c-4.8,0-8.3-0.5-10.6-1.6c-2.3-1.1-3.4-3.1-3.4-6.1c0-1.9,0.4-4.2,1.3-7l8.9-29.1
			c0.9-3.5,1.4-6.4,1.4-8.5c0-4-1.3-6.8-3.8-8.3s-6.2-2.3-11.1-2.3h-62l-5.9,19.1h15.2l-13,43.8H793.4c3.3-2.8,6.4-7.1,9.3-12.8
			c2.8-5.7,5.1-11.8,6.9-18.1c1.7-6.4,2.7-11.8,2.8-16.2c0-5.9-1.3-9.9-3.8-12.3c-2.6-2.3-7-3.5-13.3-3.5h-70.7l-9.8,19.1h21l-3.3,9
			c-1.6,4.7-2.6,8.7-3.2,12.1c-0.6,3.4-0.9,7.2-1,11.4c0,4.2,0.5,8,1.5,11.4h-97.1c-4.8,0-8.3-0.5-10.6-1.6
			c-2.3-1.1-3.4-3.1-3.4-6.1c0-1.9,0.4-4.2,1.2-7l29.7-96.2c1-3.5,1.4-6.4,1.4-8.5c0-4-1.3-6.8-3.8-8.3s-6.2-2.3-11.1-2.3h-110
			l-5.9,19.1h109.2L600,218.8c-1.2,3.8-1.8,7.5-1.8,11c0,7.9,3.2,13.9,9.6,17.8c6.4,3.9,14.9,5.9,25.4,5.9h124h3.5h142.4h14.3h5.7
			l5.7-18.8l0.2-0.3l13.2-43.8H968l-8.6,28.2c-1.2,3.8-1.8,7.5-1.8,11c0,7.9,3.2,13.9,9.6,17.8c6.4,3.9,14.9,5.9,25.4,5.9h102.9
			v-0.1c5-0.2,10.3-1.9,15.9-5.2c5.9-3.5,11.4-7.5,16.3-12s9.9-9.6,15-15.2l-7.8,24.1l-22.4,14.3c-3.6,2.2-7.6,5.4-12,9.6
			c-4.4,4.1-8.5,8.5-12.4,13.1c-3.8,4.6-7,8.9-9.4,12.9c-4.5,7.4-8.1,14.8-10.7,22.2s-3.8,14.2-3.6,20.5c0.2,6.2,2.2,11.3,6.1,15
			c3.8,3.8,9.7,5.6,17.7,5.6c6.9,0,13.7-2,20.4-6.1c6.7-4,12.2-9.5,16.4-16.3c1.9-3.1,3.4-6.4,4.7-10l21.6-67
			c12.7-3.7,25.8-5.5,39.3-5.5h72.5h14.3h5.7l5.6-18.9l0.1-0.2l13-43.8h24.2l-18.9,62.9h20l18.9-62.9h24.1l-7.5,24.9
			c-1.3,3.9-1.9,7.9-1.9,11.7c0,4.1,0.8,7.8,2.5,11.2c1.6,3.3,4,6.1,7.2,8.4c3.1,2.3,6.7,4,10.7,5.1c4,1.1,8.6,1.6,13.6,1.6h180.5
			h0.6h123.7h7h2c0,0,9-0.5,15.9-3.7c5-2.3,8-7.1,9.7-10.7c0.7,4.7,3.1,8.1,7.1,10.3c4.9,2.7,10.9,4.1,17.9,4.1h100.5h11.6h8.4
			l11.9-39.6h23.5l-5,15.4c-0.8,2.5-1.3,5-1.3,7.5c0,3.7,1,6.7,3.1,9.2c2,2.5,4.9,4.4,8.6,5.6s7.8,1.8,12.2,1.8h117.2l11.2-19.1
			H1934.1z M788.9,205c-1.6,5.2-3.8,10.1-6.6,14.7c-2.8,4.6-6.2,8.4-10.3,11.4s-8.4,4.5-13.1,4.5c-4,0-7-1.3-8.9-3.9
			s-2.9-6.1-2.9-10.4c0.1-6.2,1.9-13.4,5.5-21.7c0,0,1.7-4.3,3.7-9h35.3C791.4,195,790.5,199.8,788.9,205z M1108.9,327.1
			c-0.7,1.9-1.4,3.5-2.1,4.6c-2.8,4.6-6.4,6.9-10.8,6.9c-5.3,0-8.3-2.4-8.9-7.2s0.3-10.4,2.7-16.9c2.4-6.5,5.1-12.2,8.1-17.1
			c7.6-12.5,17.5-22.4,29.6-29.6L1108.9,327.1z"/>
		<polygon points="523.2,253.5 543.2,253.5 578.1,132.9 557.8,132.9 		"/>
	</g>
	<path class="st0" d="M0,0v372h402.3V0H0z M124.8,215.1l23.6-31.5c1.8-2.4,3.9-5.5,2.4-8.8s-5.4-3.3-8.5-3.3h-28.5v72.7h-29v-72.7
		H70.3v-4.2c0-2.4,0-5.5,2.4-7.9s5.4-2.4,7.9-2.4h60.9c7.9,0,13.6,0,18.5,2.4c4.8,2.4,8.5,7.3,12.1,12.1l3.6,4.9
		c2.6,3.4,4.6,6.1,4.6,9.7c0,3.6-2.1,6.4-4.6,9.7l-14.5,19.4L124.8,215.1L124.8,215.1z M168.4,215.1l43.6-58.2h36.4l-43.6,58.2
		H168.4z M332,178.8c0,4.8,0,18.2-9.1,27.3s-22.7,9.1-31.8,9.1h-15.8c-7.9,0-13.6,0-18.5-2.4s-8.5-7.3-12.1-12.1l-3.6-4.9
		c-2.6-3.4-4.5-6.1-4.5-9.7c0-3.6,2.1-6.5,4.5-9.7l14.6-19.4H292l-23.6,31.5c-1.8,2.4-3.9,5.4-2.4,8.8c1.5,3.3,5.5,3.3,8.5,3.3H292
		c2.4,0,6.1,0,8.5-2.4s2.4-6.1,2.4-8.5v-36.4c0-2.4,0-6.1-2.4-8.5s-6-2.4-8.5-2.4h-36.3v-4.2c0-2.4,0-5.4,2.4-7.9
		c2.4-2.4,5.4-2.4,7.9-2.4h25.2c9.1,0,22.7,0,31.8,9.1c9.1,9.1,9.1,22.4,9.1,27.3v14.5H332z"/>
</g>
</svg>
